<?xml version="1.0" encoding="iso-8859-1"?>
<!-- Uploaded to: SVG Repo, www.svgrepo.com, Generator: SVG Repo Mixer Tools -->
<svg height="800px" width="800px" version="1.1" id="Layer_1" xmlns="http://www.w3.org/2000/svg" xmlns:xlink="http://www.w3.org/1999/xlink" 
	 viewBox="0 0 512 512" xml:space="preserve">
<polygon style="fill:#FFBA7A;" points="352.579,202.418 242.738,224.593 258.644,68.335 159.421,296.365 269.694,274.105 
	232.211,443.665 "/>
<g>
	<path style="fill:#5E282D;" d="M228.808,453.28c1.122,0.397,2.27,0.586,3.401,0.586c3.772,0,7.36-2.103,9.128-5.647
		l120.369-241.247c1.74-3.487,1.34-7.661-1.029-10.755c-2.37-3.094-6.299-4.568-10.116-3.796l-96.276,19.436L268.79,69.368
		c0.509-5.001-2.701-9.627-7.565-10.9c-4.861-1.272-9.928,1.187-11.934,5.798l-99.223,228.031
		c-1.516,3.485-0.969,7.524,1.421,10.481c2.389,2.956,6.225,4.339,9.95,3.586l94.916-19.161l-34.102,154.262
		C221.14,446.493,223.953,451.562,228.808,453.28z M176.578,282.497l65.287-150.039l-9.273,91.102
		c-0.328,3.224,0.894,6.412,3.295,8.589s5.692,3.084,8.868,2.442l89.376-18.042l-74.097,148.511l19.619-88.752
		c0.744-3.369-0.264-6.885-2.681-9.348c-1.937-1.974-4.568-3.054-7.278-3.054c-0.671,0-1.346,0.066-2.018,0.202L176.578,282.497z"/>
	<path style="fill:#5E282D;" d="M501.801,245.801c-5.632,0-10.199,4.566-10.199,10.199c0,2.917-0.055,5.88-0.161,8.806
		c-0.206,5.63,4.19,10.359,9.819,10.565c0.128,0.005,0.254,0.007,0.38,0.007c5.461,0,9.984-4.324,10.185-9.826
		c0.116-3.174,0.175-6.388,0.175-9.553C512,250.367,507.433,245.801,501.801,245.801z"/>
	<path style="fill:#5E282D;" d="M496.208,309.379c-5.44-1.447-11.028,1.797-12.474,7.24
		C456.382,419.646,362.735,491.602,256,491.602c-57.598,0-112.031-20.54-154.962-58.135h32.571c5.632,0,10.199-4.566,10.199-10.199
		s-4.567-10.199-10.199-10.199H78.534c-5.632,0-10.199,4.566-10.199,10.199v55.076c0,5.633,4.567,10.199,10.199,10.199
		s10.199-4.566,10.199-10.199v-28.528C135.206,490.046,193.915,512,256,512c115.973,0,217.728-78.191,247.448-190.147
		C504.893,316.409,501.652,310.824,496.208,309.379z"/>
	<path style="fill:#5E282D;" d="M256,20.398c59.647,0,115.901,22.028,159.5,62.215h-32.01c-5.632,0-10.199,4.566-10.199,10.199
		s4.567,10.199,10.199,10.199h55.076c5.632,0,10.199-4.566,10.199-10.199V37.737c0-5.633-4.567-10.199-10.199-10.199
		c-5.632,0-10.199,4.566-10.199,10.199v28.988C381.126,23.611,320.379,0,256,0C187.619,0,123.333,26.628,74.981,74.98
		C26.628,123.333,0,187.62,0,256c0,5.633,4.567,10.199,10.199,10.199S20.398,261.633,20.398,256
		C20.398,126.089,126.089,20.398,256,20.398z"/>
</g>
</svg>