<?xml version="1.0" encoding="iso-8859-1"?>
<!-- Uploaded to: SVG Repo, www.svgrepo.com, Generator: SVG Repo Mixer Tools -->
<svg version="1.1" id="Layer_1" xmlns="http://www.w3.org/2000/svg" xmlns:xlink="http://www.w3.org/1999/xlink" 
	 viewBox="0 0 512 512" xml:space="preserve">
<polygon style="fill:#ADDE52;" points="497.779,419.132 321.308,257.845 443.587,257.845 303.244,129.577 386.616,129.577 
	256,10.199 125.384,129.577 208.756,129.577 68.413,257.845 190.692,257.845 14.221,419.132 "/>
<rect x="211.909" y="419.137" style="fill:#C5824B;" width="88.182" height="82.665"/>
<g>
	<path style="fill:#5E282D;" d="M504.66,411.604l-157.074-143.56h96.001c4.208,0,7.985-2.586,9.508-6.509
		c1.523-3.924,0.479-8.38-2.627-11.219l-120.946-110.54h57.094c4.208,0,7.985-2.585,9.508-6.509
		c1.523-3.924,0.479-8.38-2.627-11.219L262.881,2.67c-3.896-3.561-9.866-3.561-13.762,0L118.503,122.049
		c-3.107,2.839-4.15,7.295-2.627,11.219c1.523,3.924,5.3,6.509,9.508,6.509h57.094L61.532,250.316
		c-3.107,2.839-4.15,7.295-2.627,11.219c1.523,3.924,5.3,6.509,9.508,6.509h96.001L7.341,411.604
		c-3.107,2.839-4.15,7.296-2.627,11.219s5.3,6.509,9.508,6.509h187.49v72.468c0,5.633,4.566,10.199,10.199,10.199h88.179
		c5.633,0,10.199-4.566,10.199-10.199v-72.469h187.49c4.208,0,7.985-2.586,9.508-6.509C508.81,418.9,507.767,414.443,504.66,411.604
		z M289.89,491.602h-67.781v-62.27h67.781V491.602z M40.498,408.933l157.075-143.56c3.107-2.839,4.15-7.295,2.627-11.219
		c-1.523-3.924-5.299-6.509-9.508-6.509H94.691l120.946-110.54c3.107-2.839,4.15-7.295,2.627-11.219
		c-1.523-3.924-5.3-6.509-9.508-6.509h-57.094L256,24.016l104.339,95.362h-57.094c-4.208,0-7.985,2.585-9.508,6.509
		c-1.523,3.924-0.479,8.38,2.627,11.219l120.946,110.54H321.31c-4.208,0-7.985,2.585-9.508,6.509
		c-1.523,3.924-0.479,8.38,2.627,11.219l157.074,143.56H266.199v-36.918h66.958c5.633,0,10.199-4.566,10.199-10.199
		c0-5.633-4.566-10.199-10.199-10.199h-66.958V221.831c0-5.633-4.566-10.199-10.199-10.199s-10.199,4.566-10.199,10.199v129.786
		h-66.958c-5.633,0-10.199,4.566-10.199,10.199s4.566,10.199,10.199,10.199h66.958v36.918L40.498,408.933L40.498,408.933z"/>
	<path style="fill:#5E282D;" d="M256,169.746c-5.633,0-10.199,4.566-10.199,10.199v3.307c0,5.633,4.566,10.199,10.199,10.199
		c5.633,0,10.199-4.566,10.199-10.199v-3.307C266.199,174.312,261.633,169.746,256,169.746z"/>
</g>
</svg>