<?xml version="1.0" encoding="iso-8859-1"?>
<!-- Uploaded to: SVG Repo, www.svgrepo.com, Generator: SVG Repo Mixer Tools -->
<svg height="800px" width="800px" version="1.1" id="Layer_1" xmlns="http://www.w3.org/2000/svg" xmlns:xlink="http://www.w3.org/1999/xlink" 
	 viewBox="0 0 512 512" xml:space="preserve">
<g>
	<polygon style="fill:#EAE8E8;" points="348.813,10.199 85.233,10.199 85.233,501.801 426.768,501.801 426.768,88.154 	"/>
	<polygon style="fill:#EAE8E8;" points="348.813,88.154 348.813,10.199 426.768,88.154 	"/>
</g>
<path style="fill:#ADDE52;" d="M143.628,442.743h32.787c48.978,0,88.681-39.703,88.681-88.681v-32.787h-32.787
	c-48.978,0-88.681,39.703-88.681,88.681L143.628,442.743L143.628,442.743z"/>
<g>
	<path style="fill:#5E282D;" d="M433.98,80.941L356.025,2.987C354.112,1.075,351.518,0,348.813,0H85.233
		c-5.632,0-10.199,4.566-10.199,10.199v491.602c0,5.633,4.567,10.199,10.199,10.199h341.534c5.632,0,10.199-4.566,10.199-10.199
		V88.154C436.967,85.448,435.892,82.854,433.98,80.941z M402.144,77.955h-43.131V34.822L402.144,77.955z M109.194,491.602
		l38.659-38.659h28.563c54.522,0,98.879-44.357,98.879-98.88v-32.787c0-5.633-4.567-10.199-10.199-10.199h-32.787
		c-54.522,0-98.879,44.357-98.879,98.88v28.562l-37.996,37.996V20.398h243.181v67.755c0,5.633,4.567,10.199,10.199,10.199h67.755
		v393.249H109.194z M203.973,382.398c-3.984-3.983-10.44-3.983-14.425,0l-35.722,35.722v-8.163
		c0-43.275,35.207-78.482,78.481-78.482h22.588v22.588c0,43.275-35.207,78.482-78.481,78.482h-8.164l35.723-35.723
		C207.957,392.839,207.957,386.381,203.973,382.398z"/>
	<path style="fill:#5E282D;" d="M222.685,373.885c2.611,0,5.22-0.995,7.212-2.987l4.123-4.122c3.983-3.983,3.983-10.441,0-14.425
		c-3.984-3.983-10.44-3.983-14.425,0l-4.123,4.122c-3.983,3.983-3.983,10.441,0,14.425
		C217.465,372.89,220.074,373.885,222.685,373.885z"/>
</g>
</svg>