<?xml version="1.0" encoding="iso-8859-1"?>
<!-- Uploaded to: SVG Repo, www.svgrepo.com, Generator: SVG Repo Mixer Tools -->
<svg version="1.1" id="Layer_1" xmlns="http://www.w3.org/2000/svg" xmlns:xlink="http://www.w3.org/1999/xlink" 
	 viewBox="0 0 512 512" xml:space="preserve">
<path style="fill:#FFBA7A;" d="M448.811,303.413c0-18.401-15.752-32.996-34.076-31.315c-0.165,0.015-0.33,0.031-0.497,0.048
	l-60.519-0.019c-17.064-0.006-34.03,3.012-49.914,9.247c-0.096,0.038-0.193,0.075-0.289,0.113l-139.497,62.524
	c-15.035,5.453-22.801,22.063-17.347,37.097c0.972,2.679,2.301,5.126,3.909,7.311L39.287,387.79
	c-15.995-0.069-29.017,12.838-29.087,28.83c-0.07,15.993,12.837,29.015,28.83,29.085l89.244-0.779
	c28.822-0.186,57.31-6.186,83.758-17.642l138.858-60.141c8.113-3.942,16.8-6.839,25.738-8.06h40.54
	c23.435,0,32.315-11.214,31.81-25.654L448.811,303.413z"/>
<rect x="392.558" y="252.991" style="fill:#94D1EA;" width="41.878" height="155.67"/>
<rect x="434.435" y="252.991" style="fill:#EAE8E8;" width="67.366" height="155.67"/>
<circle style="fill:#94D1EA;" cx="147.889" cy="181.546" r="115.251"/>
<g>
	<path style="fill:#5E282D;" d="M501.801,418.867c5.632,0,10.199-4.567,10.199-10.199V252.994c0-5.632-4.567-10.199-10.199-10.199
		H392.557c-5.632,0-10.199,4.567-10.199,10.199v8.949l-28.633-0.015c-0.02,0-0.036,0-0.056,0c-18.731,0-36.762,3.348-53.582,9.95
		l-0.29,0.112c-0.152,0.06-0.303,0.123-0.451,0.191l-139.18,62.382c-17.929,6.71-28.099,25.292-24.818,43.571l-96.017-0.542
		c-0.059,0-0.116,0-0.175,0c-10.393,0-20.176,4.026-27.562,11.347C4.163,396.301,0.046,406.117,0,416.575
		c-0.046,10.459,3.984,20.31,11.347,27.738s17.179,11.544,27.638,11.591c0.014,0,0.029,0,0.043,0c0.031,0,0.061,0,0.092,0
		l89.222-0.779c30.363-0.196,59.885-6.414,87.746-18.481l138.858-60.141c0.136-0.059,0.27-0.12,0.403-0.186
		c7.435-3.612,14.834-5.977,22.002-7.034h5.008v39.384c0,5.632,4.567,10.199,10.199,10.199L501.801,418.867L501.801,418.867z
		 M376.628,348.885c-0.462,0-0.923,0.032-1.381,0.094c-9.447,1.291-19.069,4.282-28.609,8.892l-138.66,60.055
		c-25.33,10.971-52.168,16.624-79.794,16.802l-89.169,0.778c-4.988-0.038-9.668-2.008-13.18-5.552
		c-3.527-3.557-5.458-8.277-5.435-13.288c0.021-5.011,1.994-9.712,5.551-13.239c3.539-3.507,8.226-5.436,13.193-5.436
		c0.028,0,0.056,0,0.084,0l106.965,0.603c7.265,7.15,17.135,11.27,27.458,11.27c3.76,0,7.583-0.547,11.359-1.692
		c0.402-0.121,0.796-0.268,1.179-0.439l83.614-37.124c5.149-2.286,7.469-8.311,5.183-13.46c-2.285-5.149-8.311-7.47-13.46-5.183
		l-82.978,36.842c-9.183,2.491-18.776-2.337-22.292-11.193c-3.517-9.719,1.524-20.49,11.243-24.016
		c0.235-0.085,0.466-0.178,0.694-0.28l139.273-62.423l0.067-0.027c14.442-5.669,29.964-8.542,46.133-8.542c0.016,0,0.033,0,0.049,0
		l28.642,0.015v66.545h-5.729V348.885z M402.756,263.194h21.479V398.47h-21.479V263.194z M491.602,398.469h-46.969V263.194h46.969
		V398.469z"/>
	<path style="fill:#5E282D;" d="M147.889,306.996c69.173,0,125.45-56.277,125.45-125.45s-56.277-125.45-125.45-125.45
		s-125.45,56.277-125.45,125.45S78.716,306.996,147.889,306.996z M147.889,77.514c8.012,0,19.403,16.009,26.418,45.896h-52.842
		c1.607-6.832,3.5-13.234,5.684-19.057C134.578,84.543,142.964,77.514,147.889,77.514z M245.926,143.809
		c4.526,11.718,7.015,24.441,7.015,37.737c0,13.296-2.489,26.019-7.015,37.737h-47.355c1.069-8.308,1.77-16.749,2.103-25.091
		c0.224-5.629-4.156-10.374-9.784-10.599c-5.605-0.185-10.373,4.156-10.598,9.784c-0.369,9.232-1.157,17.879-2.26,25.905h-60.308
		c-1.621-11.898-2.471-24.624-2.471-37.737c0-13.113,0.851-25.839,2.471-37.737h128.202V143.809z M147.889,285.578
		c-4.925,0-13.311-7.029-20.74-26.839c-2.184-5.823-4.077-12.224-5.684-19.057h52.805
		C167.375,268.845,156.171,285.578,147.889,285.578z M97.171,219.283H49.852c-4.526-11.718-7.015-24.441-7.015-37.737
		c0-13.296,2.489-26.019,7.015-37.737h47.319c-1.518,12.035-2.318,24.733-2.318,37.737S95.654,207.248,97.171,219.283z
		 M60.435,239.681h40.145c2.003,9.464,4.497,18.292,7.47,26.219c2.151,5.737,4.523,10.898,7.085,15.462
		C92.577,273.942,73.369,259.075,60.435,239.681z M180.619,281.371c6.313-11.388,11.142-25.894,14.501-41.689h40.224
		C222.403,259.082,203.188,273.953,180.619,281.371z M235.343,123.411h-40.145c-3.556-16.848-8.531-30.918-14.591-41.693
		C203.181,89.134,222.401,104.006,235.343,123.411z M115.134,81.729c-2.562,4.564-4.934,9.725-7.085,15.462
		c-2.972,7.927-5.467,16.755-7.47,26.219H60.435C73.369,104.017,92.577,89.15,115.134,81.729z"/>
	<path style="fill:#5E282D;" d="M179.868,161.839c0.11,1.627,0.207,3.267,0.29,4.918c0.272,5.454,4.779,9.69,10.178,9.69
		c0.171,0,0.345-0.004,0.518-0.013c5.626-0.28,9.958-5.07,9.677-10.695c-0.089-1.775-0.192-3.535-0.311-5.283
		c-0.381-5.62-5.24-9.869-10.866-9.484C183.733,151.353,179.487,156.218,179.868,161.839z"/>
</g>
</svg>